<svg width="122" height="27" viewBox="0 0 122 27" fill="none" xmlns="http://www.w3.org/2000/svg">
<mask id="path-1-outside-1_180_3592" maskUnits="userSpaceOnUse" x="0" y="0" width="122" height="27" fill="black">
<rect fill="white" width="122" height="27"/>
<path d="M111.621 26C109.802 26 108.192 25.5904 106.792 24.7711C105.392 23.9284 104.284 22.8048 103.468 21.4003C102.651 19.9724 102.243 18.3806 102.243 16.625C102.243 14.8694 102.651 13.2893 103.468 11.8848C104.284 10.4569 105.392 9.33333 106.792 8.51404C108.192 7.67135 109.802 7.25 111.621 7.25C113.441 7.25 115.051 7.67135 116.451 8.51404C117.874 9.33333 118.982 10.4452 119.775 11.8497C120.592 13.2542 121 14.846 121 16.625C121 18.3806 120.592 19.9724 119.775 21.4003C118.982 22.8048 117.874 23.9284 116.451 24.7711C115.051 25.5904 113.441 26 111.621 26ZM111.621 23.2261C112.858 23.2261 113.931 22.9335 114.841 22.3483C115.751 21.7631 116.462 20.9789 116.976 19.9958C117.489 18.9892 117.745 17.8656 117.745 16.625C117.745 15.3844 117.489 14.2725 116.976 13.2893C116.462 12.2828 115.751 11.4869 114.841 10.9017C113.931 10.3165 112.858 10.0239 111.621 10.0239C110.408 10.0239 109.335 10.3165 108.402 10.9017C107.492 11.4869 106.78 12.2828 106.267 13.2893C105.754 14.2725 105.497 15.3844 105.497 16.625C105.497 17.8656 105.754 18.9892 106.267 19.9958C106.78 20.9789 107.492 21.7631 108.402 22.3483C109.335 22.9335 110.408 23.2261 111.621 23.2261Z"/>
<path d="M92.8979 25.5787V12.7626C92.8979 11.1709 93.3412 9.93024 94.2277 9.04073C95.1376 8.12781 96.3858 7.67135 97.9722 7.67135H101.647V10.4452H98.5671C97.7972 10.4452 97.1907 10.6676 96.7474 11.1124C96.3274 11.5571 96.1175 12.1774 96.1175 12.9733V25.5787H92.8979Z"/>
<path d="M82.6783 25.5787V12.7626C82.6783 11.1709 83.1216 9.93024 84.0081 9.04073C84.918 8.12781 86.1661 7.67135 87.7526 7.67135H91.427V10.4452H88.3475C87.5776 10.4452 86.971 10.6676 86.5277 11.1124C86.1078 11.5571 85.8978 12.1774 85.8978 12.9733V25.5787H82.6783Z"/>
<path d="M68.9783 26C67.2519 26 65.7588 25.5904 64.499 24.7711C63.2391 23.9284 62.2709 22.7931 61.5944 21.3652C60.9178 19.9373 60.5795 18.3572 60.5795 16.625C60.5795 14.8694 60.9528 13.2893 61.6994 11.8848C62.4459 10.4569 63.5191 9.33333 64.9189 8.51404C66.3187 7.67135 67.9985 7.25 69.9582 7.25C71.8479 7.25 73.4693 7.65965 74.8225 8.47893C76.1756 9.29822 77.2138 10.4101 77.937 11.8146C78.6836 13.2191 79.0569 14.7875 79.0569 16.5197V25.5787H75.8023V21.927H75.7323C75.3824 22.6058 74.9041 23.2612 74.2975 23.8933C73.7143 24.5019 72.9794 25.0051 72.0929 25.4031C71.2063 25.801 70.1681 26 68.9783 26ZM69.8182 23.2261C70.9847 23.2261 72.0112 22.9452 72.8978 22.3834C73.8076 21.7982 74.5075 21.0023 74.9974 19.9958C75.5107 18.9658 75.7673 17.8188 75.7673 16.5548C75.7673 15.3141 75.5224 14.2022 75.0324 13.2191C74.5658 12.236 73.8893 11.4635 73.0027 10.9017C72.1162 10.3165 71.078 10.0239 69.8882 10.0239C68.6284 10.0239 67.5435 10.3165 66.6337 10.9017C65.7471 11.4869 65.0589 12.2828 64.5689 13.2893C64.1023 14.2725 63.869 15.3961 63.869 16.6601C63.869 17.8773 64.1023 18.9892 64.5689 19.9958C65.0355 20.9789 65.7121 21.7631 66.5986 22.3483C67.4852 22.9335 68.5584 23.2261 69.8182 23.2261Z"/>
<path d="M47.7104 25.5787C46.9638 25.5787 46.2989 25.4031 45.7157 25.052C45.1324 24.7008 44.6658 24.2327 44.3159 23.6475C43.9892 23.0389 43.8259 22.3834 43.8259 21.6812C43.8259 20.9321 44.0009 20.2767 44.3509 19.7149C44.7241 19.1297 45.2607 18.603 45.9606 18.1348L54.1845 12.9031C54.5344 12.6924 54.756 12.4817 54.8494 12.2711C54.966 12.0604 55.0243 11.838 55.0243 11.6039C55.0243 11.323 54.9077 11.0655 54.6744 10.8315C54.4411 10.574 54.1378 10.4452 53.7645 10.4452H44.7008V7.67135H54.7444C55.4676 7.67135 56.1092 7.84691 56.6691 8.19803C57.2523 8.54916 57.7073 9.02903 58.0339 9.63764C58.3839 10.2228 58.5588 10.8666 58.5588 11.5688C58.5588 12.2945 58.3722 12.9616 57.9989 13.5702C57.649 14.1554 57.1357 14.6704 56.4591 15.1152L48.2353 20.3469C47.8854 20.5576 47.6521 20.7683 47.5354 20.9789C47.4421 21.1896 47.3954 21.412 47.3954 21.6461C47.3954 21.927 47.5121 22.1962 47.7454 22.4537C47.9787 22.6877 48.2936 22.8048 48.6902 22.8048H58.2439V25.5787H47.7104Z"/>
<path d="M31.2808 26C29.5544 26 28.0612 25.5904 26.8014 24.7711C25.5416 23.9284 24.5734 22.7931 23.8968 21.3652C23.2203 19.9373 22.882 18.3572 22.882 16.625C22.882 14.8694 23.2553 13.2893 24.0018 11.8848C24.7484 10.4569 25.8216 9.33333 27.2214 8.51404C28.6212 7.67135 30.3009 7.25 32.2606 7.25C34.1504 7.25 35.7718 7.65965 37.1249 8.47893C38.4781 9.29822 39.5163 10.4101 40.2395 11.8146C40.9861 13.2191 41.3593 14.7875 41.3593 16.5197V25.5787H38.1048V21.927H38.0348C37.6849 22.6058 37.2066 23.2612 36.6 23.8933C36.0168 24.5019 35.2819 25.0051 34.3953 25.4031C33.5088 25.801 32.4706 26 31.2808 26ZM32.1207 23.2261C33.2872 23.2261 34.3137 22.9452 35.2002 22.3834C36.1101 21.7982 36.81 21.0023 37.2999 19.9958C37.8132 18.9658 38.0698 17.8188 38.0698 16.5548C38.0698 15.3141 37.8248 14.2022 37.3349 13.2191C36.8683 12.236 36.1917 11.4635 35.3052 10.9017C34.4187 10.3165 33.3805 10.0239 32.1907 10.0239C30.9308 10.0239 29.846 10.3165 28.9361 10.9017C28.0496 11.4869 27.3613 12.2828 26.8714 13.2893C26.4048 14.2725 26.1715 15.3961 26.1715 16.6601C26.1715 17.8773 26.4048 18.9892 26.8714 19.9958C27.338 20.9789 28.0146 21.7631 28.9011 22.3483C29.7877 22.9335 30.8608 23.2261 32.1207 23.2261Z"/>
<path d="M1 25.5787V1H14.2981C15.5346 1 16.6194 1.2809 17.5526 1.8427C18.4858 2.38109 19.2207 3.11845 19.7573 4.05478C20.2939 4.99111 20.5622 6.05618 20.5622 7.25C20.5622 8.06929 20.3872 8.86517 20.0373 9.63764C19.7107 10.3867 19.2441 11.0421 18.6375 11.6039C18.0309 12.1657 17.3077 12.5871 16.4678 12.868C17.4243 13.1021 18.2525 13.5234 18.9524 14.132C19.6523 14.7406 20.2006 15.4663 20.5972 16.309C21.0171 17.1517 21.2271 18.0646 21.2271 19.0478C21.2271 20.265 20.9471 21.3652 20.3872 22.3483C19.8273 23.3315 19.0457 24.1156 18.0426 24.7008C17.0627 25.2861 15.8845 25.5787 14.5081 25.5787H1ZM4.35952 22.5941H13.7382C14.6014 22.5941 15.3363 22.4068 15.9429 22.0323C16.5494 21.6344 17.016 21.1311 17.3427 20.5225C17.6926 19.8904 17.8676 19.2233 17.8676 18.5211C17.8676 17.7954 17.6926 17.14 17.3427 16.5548C16.9927 15.9462 16.5028 15.4546 15.8729 15.0801C15.243 14.6821 14.4964 14.4831 13.6332 14.4831H4.35952V22.5941ZM4.35952 11.639H13.1433C13.9598 11.639 14.6714 11.4635 15.278 11.1124C15.9079 10.7378 16.3861 10.258 16.7128 9.67275C17.0627 9.06414 17.2377 8.43212 17.2377 7.77669C17.2377 7.09785 17.0744 6.47753 16.7477 5.91573C16.4211 5.33052 15.9662 4.86236 15.3829 4.51124C14.7997 4.16011 14.1231 3.98455 13.3532 3.98455H4.35952V11.639Z"/>
</mask>
<path d="M111.621 26C109.802 26 108.192 25.5904 106.792 24.7711C105.392 23.9284 104.284 22.8048 103.468 21.4003C102.651 19.9724 102.243 18.3806 102.243 16.625C102.243 14.8694 102.651 13.2893 103.468 11.8848C104.284 10.4569 105.392 9.33333 106.792 8.51404C108.192 7.67135 109.802 7.25 111.621 7.25C113.441 7.25 115.051 7.67135 116.451 8.51404C117.874 9.33333 118.982 10.4452 119.775 11.8497C120.592 13.2542 121 14.846 121 16.625C121 18.3806 120.592 19.9724 119.775 21.4003C118.982 22.8048 117.874 23.9284 116.451 24.7711C115.051 25.5904 113.441 26 111.621 26ZM111.621 23.2261C112.858 23.2261 113.931 22.9335 114.841 22.3483C115.751 21.7631 116.462 20.9789 116.976 19.9958C117.489 18.9892 117.745 17.8656 117.745 16.625C117.745 15.3844 117.489 14.2725 116.976 13.2893C116.462 12.2828 115.751 11.4869 114.841 10.9017C113.931 10.3165 112.858 10.0239 111.621 10.0239C110.408 10.0239 109.335 10.3165 108.402 10.9017C107.492 11.4869 106.78 12.2828 106.267 13.2893C105.754 14.2725 105.497 15.3844 105.497 16.625C105.497 17.8656 105.754 18.9892 106.267 19.9958C106.78 20.9789 107.492 21.7631 108.402 22.3483C109.335 22.9335 110.408 23.2261 111.621 23.2261Z" fill="#FF5A00"/>
<path d="M92.8979 25.5787V12.7626C92.8979 11.1709 93.3412 9.93024 94.2277 9.04073C95.1376 8.12781 96.3858 7.67135 97.9722 7.67135H101.647V10.4452H98.5671C97.7972 10.4452 97.1907 10.6676 96.7474 11.1124C96.3274 11.5571 96.1175 12.1774 96.1175 12.9733V25.5787H92.8979Z" fill="#FF5A00"/>
<path d="M82.6783 25.5787V12.7626C82.6783 11.1709 83.1216 9.93024 84.0081 9.04073C84.918 8.12781 86.1661 7.67135 87.7526 7.67135H91.427V10.4452H88.3475C87.5776 10.4452 86.971 10.6676 86.5277 11.1124C86.1078 11.5571 85.8978 12.1774 85.8978 12.9733V25.5787H82.6783Z" fill="#FF5A00"/>
<path d="M68.9783 26C67.2519 26 65.7588 25.5904 64.499 24.7711C63.2391 23.9284 62.2709 22.7931 61.5944 21.3652C60.9178 19.9373 60.5795 18.3572 60.5795 16.625C60.5795 14.8694 60.9528 13.2893 61.6994 11.8848C62.4459 10.4569 63.5191 9.33333 64.9189 8.51404C66.3187 7.67135 67.9985 7.25 69.9582 7.25C71.8479 7.25 73.4693 7.65965 74.8225 8.47893C76.1756 9.29822 77.2138 10.4101 77.937 11.8146C78.6836 13.2191 79.0569 14.7875 79.0569 16.5197V25.5787H75.8023V21.927H75.7323C75.3824 22.6058 74.9041 23.2612 74.2975 23.8933C73.7143 24.5019 72.9794 25.0051 72.0929 25.4031C71.2063 25.801 70.1681 26 68.9783 26ZM69.8182 23.2261C70.9847 23.2261 72.0112 22.9452 72.8978 22.3834C73.8076 21.7982 74.5075 21.0023 74.9974 19.9958C75.5107 18.9658 75.7673 17.8188 75.7673 16.5548C75.7673 15.3141 75.5224 14.2022 75.0324 13.2191C74.5658 12.236 73.8893 11.4635 73.0027 10.9017C72.1162 10.3165 71.078 10.0239 69.8882 10.0239C68.6284 10.0239 67.5435 10.3165 66.6337 10.9017C65.7471 11.4869 65.0589 12.2828 64.5689 13.2893C64.1023 14.2725 63.869 15.3961 63.869 16.6601C63.869 17.8773 64.1023 18.9892 64.5689 19.9958C65.0355 20.9789 65.7121 21.7631 66.5986 22.3483C67.4852 22.9335 68.5584 23.2261 69.8182 23.2261Z" fill="#FF5A00"/>
<path d="M47.7104 25.5787C46.9638 25.5787 46.2989 25.4031 45.7157 25.052C45.1324 24.7008 44.6658 24.2327 44.3159 23.6475C43.9892 23.0389 43.8259 22.3834 43.8259 21.6812C43.8259 20.9321 44.0009 20.2767 44.3509 19.7149C44.7241 19.1297 45.2607 18.603 45.9606 18.1348L54.1845 12.9031C54.5344 12.6924 54.756 12.4817 54.8494 12.2711C54.966 12.0604 55.0243 11.838 55.0243 11.6039C55.0243 11.323 54.9077 11.0655 54.6744 10.8315C54.4411 10.574 54.1378 10.4452 53.7645 10.4452H44.7008V7.67135H54.7444C55.4676 7.67135 56.1092 7.84691 56.6691 8.19803C57.2523 8.54916 57.7073 9.02903 58.0339 9.63764C58.3839 10.2228 58.5588 10.8666 58.5588 11.5688C58.5588 12.2945 58.3722 12.9616 57.9989 13.5702C57.649 14.1554 57.1357 14.6704 56.4591 15.1152L48.2353 20.3469C47.8854 20.5576 47.6521 20.7683 47.5354 20.9789C47.4421 21.1896 47.3954 21.412 47.3954 21.6461C47.3954 21.927 47.5121 22.1962 47.7454 22.4537C47.9787 22.6877 48.2936 22.8048 48.6902 22.8048H58.2439V25.5787H47.7104Z" fill="#FF5A00"/>
<path d="M31.2808 26C29.5544 26 28.0612 25.5904 26.8014 24.7711C25.5416 23.9284 24.5734 22.7931 23.8968 21.3652C23.2203 19.9373 22.882 18.3572 22.882 16.625C22.882 14.8694 23.2553 13.2893 24.0018 11.8848C24.7484 10.4569 25.8216 9.33333 27.2214 8.51404C28.6212 7.67135 30.3009 7.25 32.2606 7.25C34.1504 7.25 35.7718 7.65965 37.1249 8.47893C38.4781 9.29822 39.5163 10.4101 40.2395 11.8146C40.9861 13.2191 41.3593 14.7875 41.3593 16.5197V25.5787H38.1048V21.927H38.0348C37.6849 22.6058 37.2066 23.2612 36.6 23.8933C36.0168 24.5019 35.2819 25.0051 34.3953 25.4031C33.5088 25.801 32.4706 26 31.2808 26ZM32.1207 23.2261C33.2872 23.2261 34.3137 22.9452 35.2002 22.3834C36.1101 21.7982 36.81 21.0023 37.2999 19.9958C37.8132 18.9658 38.0698 17.8188 38.0698 16.5548C38.0698 15.3141 37.8248 14.2022 37.3349 13.2191C36.8683 12.236 36.1917 11.4635 35.3052 10.9017C34.4187 10.3165 33.3805 10.0239 32.1907 10.0239C30.9308 10.0239 29.846 10.3165 28.9361 10.9017C28.0496 11.4869 27.3613 12.2828 26.8714 13.2893C26.4048 14.2725 26.1715 15.3961 26.1715 16.6601C26.1715 17.8773 26.4048 18.9892 26.8714 19.9958C27.338 20.9789 28.0146 21.7631 28.9011 22.3483C29.7877 22.9335 30.8608 23.2261 32.1207 23.2261Z" fill="#FF5A00"/>
<path d="M1 25.5787V1H14.2981C15.5346 1 16.6194 1.2809 17.5526 1.8427C18.4858 2.38109 19.2207 3.11845 19.7573 4.05478C20.2939 4.99111 20.5622 6.05618 20.5622 7.25C20.5622 8.06929 20.3872 8.86517 20.0373 9.63764C19.7107 10.3867 19.2441 11.0421 18.6375 11.6039C18.0309 12.1657 17.3077 12.5871 16.4678 12.868C17.4243 13.1021 18.2525 13.5234 18.9524 14.132C19.6523 14.7406 20.2006 15.4663 20.5972 16.309C21.0171 17.1517 21.2271 18.0646 21.2271 19.0478C21.2271 20.265 20.9471 21.3652 20.3872 22.3483C19.8273 23.3315 19.0457 24.1156 18.0426 24.7008C17.0627 25.2861 15.8845 25.5787 14.5081 25.5787H1ZM4.35952 22.5941H13.7382C14.6014 22.5941 15.3363 22.4068 15.9429 22.0323C16.5494 21.6344 17.016 21.1311 17.3427 20.5225C17.6926 19.8904 17.8676 19.2233 17.8676 18.5211C17.8676 17.7954 17.6926 17.14 17.3427 16.5548C16.9927 15.9462 16.5028 15.4546 15.8729 15.0801C15.243 14.6821 14.4964 14.4831 13.6332 14.4831H4.35952V22.5941ZM4.35952 11.639H13.1433C13.9598 11.639 14.6714 11.4635 15.278 11.1124C15.9079 10.7378 16.3861 10.258 16.7128 9.67275C17.0627 9.06414 17.2377 8.43212 17.2377 7.77669C17.2377 7.09785 17.0744 6.47753 16.7477 5.91573C16.4211 5.33052 15.9662 4.86236 15.3829 4.51124C14.7997 4.16011 14.1231 3.98455 13.3532 3.98455H4.35952V11.639Z" fill="#FF5A00"/>
<path d="M111.621 26C109.802 26 108.192 25.5904 106.792 24.7711C105.392 23.9284 104.284 22.8048 103.468 21.4003C102.651 19.9724 102.243 18.3806 102.243 16.625C102.243 14.8694 102.651 13.2893 103.468 11.8848C104.284 10.4569 105.392 9.33333 106.792 8.51404C108.192 7.67135 109.802 7.25 111.621 7.25C113.441 7.25 115.051 7.67135 116.451 8.51404C117.874 9.33333 118.982 10.4452 119.775 11.8497C120.592 13.2542 121 14.846 121 16.625C121 18.3806 120.592 19.9724 119.775 21.4003C118.982 22.8048 117.874 23.9284 116.451 24.7711C115.051 25.5904 113.441 26 111.621 26ZM111.621 23.2261C112.858 23.2261 113.931 22.9335 114.841 22.3483C115.751 21.7631 116.462 20.9789 116.976 19.9958C117.489 18.9892 117.745 17.8656 117.745 16.625C117.745 15.3844 117.489 14.2725 116.976 13.2893C116.462 12.2828 115.751 11.4869 114.841 10.9017C113.931 10.3165 112.858 10.0239 111.621 10.0239C110.408 10.0239 109.335 10.3165 108.402 10.9017C107.492 11.4869 106.78 12.2828 106.267 13.2893C105.754 14.2725 105.497 15.3844 105.497 16.625C105.497 17.8656 105.754 18.9892 106.267 19.9958C106.78 20.9789 107.492 21.7631 108.402 22.3483C109.335 22.9335 110.408 23.2261 111.621 23.2261Z" stroke="#FF5A00" mask="url(#path-1-outside-1_180_3592)"/>
<path d="M92.8979 25.5787V12.7626C92.8979 11.1709 93.3412 9.93024 94.2277 9.04073C95.1376 8.12781 96.3858 7.67135 97.9722 7.67135H101.647V10.4452H98.5671C97.7972 10.4452 97.1907 10.6676 96.7474 11.1124C96.3274 11.5571 96.1175 12.1774 96.1175 12.9733V25.5787H92.8979Z" stroke="#FF5A00" mask="url(#path-1-outside-1_180_3592)"/>
<path d="M82.6783 25.5787V12.7626C82.6783 11.1709 83.1216 9.93024 84.0081 9.04073C84.918 8.12781 86.1661 7.67135 87.7526 7.67135H91.427V10.4452H88.3475C87.5776 10.4452 86.971 10.6676 86.5277 11.1124C86.1078 11.5571 85.8978 12.1774 85.8978 12.9733V25.5787H82.6783Z" stroke="#FF5A00" mask="url(#path-1-outside-1_180_3592)"/>
<path d="M68.9783 26C67.2519 26 65.7588 25.5904 64.499 24.7711C63.2391 23.9284 62.2709 22.7931 61.5944 21.3652C60.9178 19.9373 60.5795 18.3572 60.5795 16.625C60.5795 14.8694 60.9528 13.2893 61.6994 11.8848C62.4459 10.4569 63.5191 9.33333 64.9189 8.51404C66.3187 7.67135 67.9985 7.25 69.9582 7.25C71.8479 7.25 73.4693 7.65965 74.8225 8.47893C76.1756 9.29822 77.2138 10.4101 77.937 11.8146C78.6836 13.2191 79.0569 14.7875 79.0569 16.5197V25.5787H75.8023V21.927H75.7323C75.3824 22.6058 74.9041 23.2612 74.2975 23.8933C73.7143 24.5019 72.9794 25.0051 72.0929 25.4031C71.2063 25.801 70.1681 26 68.9783 26ZM69.8182 23.2261C70.9847 23.2261 72.0112 22.9452 72.8978 22.3834C73.8076 21.7982 74.5075 21.0023 74.9974 19.9958C75.5107 18.9658 75.7673 17.8188 75.7673 16.5548C75.7673 15.3141 75.5224 14.2022 75.0324 13.2191C74.5658 12.236 73.8893 11.4635 73.0027 10.9017C72.1162 10.3165 71.078 10.0239 69.8882 10.0239C68.6284 10.0239 67.5435 10.3165 66.6337 10.9017C65.7471 11.4869 65.0589 12.2828 64.5689 13.2893C64.1023 14.2725 63.869 15.3961 63.869 16.6601C63.869 17.8773 64.1023 18.9892 64.5689 19.9958C65.0355 20.9789 65.7121 21.7631 66.5986 22.3483C67.4852 22.9335 68.5584 23.2261 69.8182 23.2261Z" stroke="#FF5A00" mask="url(#path-1-outside-1_180_3592)"/>
<path d="M47.7104 25.5787C46.9638 25.5787 46.2989 25.4031 45.7157 25.052C45.1324 24.7008 44.6658 24.2327 44.3159 23.6475C43.9892 23.0389 43.8259 22.3834 43.8259 21.6812C43.8259 20.9321 44.0009 20.2767 44.3509 19.7149C44.7241 19.1297 45.2607 18.603 45.9606 18.1348L54.1845 12.9031C54.5344 12.6924 54.756 12.4817 54.8494 12.2711C54.966 12.0604 55.0243 11.838 55.0243 11.6039C55.0243 11.323 54.9077 11.0655 54.6744 10.8315C54.4411 10.574 54.1378 10.4452 53.7645 10.4452H44.7008V7.67135H54.7444C55.4676 7.67135 56.1092 7.84691 56.6691 8.19803C57.2523 8.54916 57.7073 9.02903 58.0339 9.63764C58.3839 10.2228 58.5588 10.8666 58.5588 11.5688C58.5588 12.2945 58.3722 12.9616 57.9989 13.5702C57.649 14.1554 57.1357 14.6704 56.4591 15.1152L48.2353 20.3469C47.8854 20.5576 47.6521 20.7683 47.5354 20.9789C47.4421 21.1896 47.3954 21.412 47.3954 21.6461C47.3954 21.927 47.5121 22.1962 47.7454 22.4537C47.9787 22.6877 48.2936 22.8048 48.6902 22.8048H58.2439V25.5787H47.7104Z" stroke="#FF5A00" mask="url(#path-1-outside-1_180_3592)"/>
<path d="M31.2808 26C29.5544 26 28.0612 25.5904 26.8014 24.7711C25.5416 23.9284 24.5734 22.7931 23.8968 21.3652C23.2203 19.9373 22.882 18.3572 22.882 16.625C22.882 14.8694 23.2553 13.2893 24.0018 11.8848C24.7484 10.4569 25.8216 9.33333 27.2214 8.51404C28.6212 7.67135 30.3009 7.25 32.2606 7.25C34.1504 7.25 35.7718 7.65965 37.1249 8.47893C38.4781 9.29822 39.5163 10.4101 40.2395 11.8146C40.9861 13.2191 41.3593 14.7875 41.3593 16.5197V25.5787H38.1048V21.927H38.0348C37.6849 22.6058 37.2066 23.2612 36.6 23.8933C36.0168 24.5019 35.2819 25.0051 34.3953 25.4031C33.5088 25.801 32.4706 26 31.2808 26ZM32.1207 23.2261C33.2872 23.2261 34.3137 22.9452 35.2002 22.3834C36.1101 21.7982 36.81 21.0023 37.2999 19.9958C37.8132 18.9658 38.0698 17.8188 38.0698 16.5548C38.0698 15.3141 37.8248 14.2022 37.3349 13.2191C36.8683 12.236 36.1917 11.4635 35.3052 10.9017C34.4187 10.3165 33.3805 10.0239 32.1907 10.0239C30.9308 10.0239 29.846 10.3165 28.9361 10.9017C28.0496 11.4869 27.3613 12.2828 26.8714 13.2893C26.4048 14.2725 26.1715 15.3961 26.1715 16.6601C26.1715 17.8773 26.4048 18.9892 26.8714 19.9958C27.338 20.9789 28.0146 21.7631 28.9011 22.3483C29.7877 22.9335 30.8608 23.2261 32.1207 23.2261Z" stroke="#FF5A00" mask="url(#path-1-outside-1_180_3592)"/>
<path d="M1 25.5787V1H14.2981C15.5346 1 16.6194 1.2809 17.5526 1.8427C18.4858 2.38109 19.2207 3.11845 19.7573 4.05478C20.2939 4.99111 20.5622 6.05618 20.5622 7.25C20.5622 8.06929 20.3872 8.86517 20.0373 9.63764C19.7107 10.3867 19.2441 11.0421 18.6375 11.6039C18.0309 12.1657 17.3077 12.5871 16.4678 12.868C17.4243 13.1021 18.2525 13.5234 18.9524 14.132C19.6523 14.7406 20.2006 15.4663 20.5972 16.309C21.0171 17.1517 21.2271 18.0646 21.2271 19.0478C21.2271 20.265 20.9471 21.3652 20.3872 22.3483C19.8273 23.3315 19.0457 24.1156 18.0426 24.7008C17.0627 25.2861 15.8845 25.5787 14.5081 25.5787H1ZM4.35952 22.5941H13.7382C14.6014 22.5941 15.3363 22.4068 15.9429 22.0323C16.5494 21.6344 17.016 21.1311 17.3427 20.5225C17.6926 19.8904 17.8676 19.2233 17.8676 18.5211C17.8676 17.7954 17.6926 17.14 17.3427 16.5548C16.9927 15.9462 16.5028 15.4546 15.8729 15.0801C15.243 14.6821 14.4964 14.4831 13.6332 14.4831H4.35952V22.5941ZM4.35952 11.639H13.1433C13.9598 11.639 14.6714 11.4635 15.278 11.1124C15.9079 10.7378 16.3861 10.258 16.7128 9.67275C17.0627 9.06414 17.2377 8.43212 17.2377 7.77669C17.2377 7.09785 17.0744 6.47753 16.7477 5.91573C16.4211 5.33052 15.9662 4.86236 15.3829 4.51124C14.7997 4.16011 14.1231 3.98455 13.3532 3.98455H4.35952V11.639Z" stroke="#FF5A00" mask="url(#path-1-outside-1_180_3592)"/>
</svg>
